<svg width="24" height="24" viewBox="0 0 24 24" fill="none" xmlns="http://www.w3.org/2000/svg">
<rect x="0.5" y="0.5" width="23" height="23" fill="#0A7DFA" stroke="white"/>
<path d="M15.3472 9.60062H12.8594V8.7784C12.8594 7.54821 13.3405 7.07628 14.589 7.07628C14.9757 7.07628 15.2893 7.08538 15.469 7.10366V4.99348C15.1279 4.89904 14.2967 4.80469 13.8156 4.80469C11.2729 4.80469 10.1006 6.0044 10.1006 8.59571V9.59753H8.52942V11.924H10.1006V19.2047H12.8624V11.927H14.9209L15.3472 9.60062Z" fill="white"/>
<path d="M12.8594 9.60062H15.3472L14.9209 11.927H12.8624V19.2047H10.1006V11.924H8.52942V9.59753H10.1006V8.59571C10.1006 6.0044 11.2729 4.80469 13.8156 4.80469C14.2967 4.80469 15.1279 4.89904 15.469 4.99348V7.10366C15.2893 7.08538 14.9757 7.07628 14.589 7.07628C13.3405 7.07628 12.8594 7.54821 12.8594 8.7784V9.60062Z" fill="white"/>
</svg>
