<svg width="24" height="24" viewBox="0 0 24 24" fill="none" xmlns="http://www.w3.org/2000/svg">
<rect x="0.5" y="0.5" width="23" height="23" fill="#0A7DFA" stroke="white"/>
<path fill-rule="evenodd" clip-rule="evenodd" d="M18.4025 18.3937H15.7725V13.9143C15.7725 12.6861 15.3059 11.9998 14.3338 11.9998C13.2763 11.9998 12.7238 12.714 12.7238 13.9143V18.3937H10.1892V9.86042H12.7238V11.0099C12.7238 11.0099 13.4859 9.59971 15.2967 9.59971C17.1067 9.59971 18.4025 10.705 18.4025 12.991V18.3937ZM7.16546 8.74305C6.30212 8.74305 5.60254 8.03797 5.60254 7.1684C5.60254 6.29882 6.30212 5.59375 7.16546 5.59375C8.02879 5.59375 8.72796 6.29882 8.72796 7.1684C8.72796 8.03797 8.02879 8.74305 7.16546 8.74305ZM5.85671 18.3937H8.49962V9.86042H5.85671V18.3937Z" fill="white"/>
</svg>
