<svg width="24" height="24" viewBox="0 0 24 24" fill="none" xmlns="http://www.w3.org/2000/svg">
<rect x="0.5" y="0.5" width="23" height="23" fill="#0A7DFA" stroke="white"/>
<path d="M11.9922 16.6879C11.9922 16.6879 16.2526 16.6879 17.3094 16.4065C17.9044 16.2471 18.3519 15.7875 18.509 15.22C18.7993 14.1789 18.7993 11.9889 18.7993 11.9889C18.7993 11.9889 18.7993 9.81287 18.509 8.78115C18.3519 8.19963 17.9044 7.74942 17.3094 7.59466C16.2526 7.30859 11.9922 7.30859 11.9922 7.30859C11.9922 7.30859 7.74131 7.30859 6.6893 7.59466C6.10379 7.74942 5.6468 8.19963 5.48019 8.78115C5.19934 9.81287 5.19934 11.9889 5.19934 11.9889C5.19934 11.9889 5.19934 14.1789 5.48019 15.22C5.6468 15.7875 6.10379 16.2471 6.6893 16.4065C7.74131 16.6879 11.9922 16.6879 11.9922 16.6879Z" fill="white"/>
<path d="M14.1129 11.9931L10.5957 10V13.9862L14.1129 11.9931Z" fill="#0A7DFA"/>
</svg>
