<svg width="24" height="24" viewBox="0 0 24 24" fill="none" xmlns="http://www.w3.org/2000/svg">
<rect x="0.5" y="0.5" width="23" height="23" fill="#0A7DFA" stroke="white"/>
<g clip-path="url(#clip0_3388_62)">
<mask id="mask0_3388_62" style="mask-type:luminance" maskUnits="userSpaceOnUse" x="5" y="6" width="13" height="14">
<path d="M17.7549 6.75781H5.55566V19.2032H17.7549V6.75781Z" fill="white"/>
</mask>
<g mask="url(#mask0_3388_62)">
<path d="M17.7588 13.124C17.7588 12.7009 17.7246 12.2757 17.6515 11.8594H11.7822V14.2553H15.1434C15.004 15.0285 14.5555 15.7121 13.8993 16.1461V17.7006H15.9042C17.0821 16.6171 17.7588 15.0169 17.7588 13.124Z" fill="white"/>
<path d="M11.7807 19.2017C13.4589 19.2017 14.8746 18.6507 15.9054 17.6992L13.9005 16.1447C13.3427 16.5241 12.6222 16.7394 11.7834 16.7394C10.1599 16.7394 8.78386 15.6443 8.28962 14.1719H6.21973V15.7749C7.27587 17.8762 9.42779 19.2017 11.7807 19.2017Z" fill="white"/>
<path d="M8.28483 14.1728C8.02438 13.3997 8.02438 12.563 8.28483 11.7905V10.1875H6.21767C5.33516 11.9457 5.33516 14.0176 6.21767 15.7758L8.28483 14.1728Z" fill="white"/>
<path d="M11.7807 9.22052C12.668 9.20684 13.5252 9.54043 14.1678 10.1536L15.9444 8.37697C14.8192 7.32083 13.3263 6.73978 11.7807 6.75824C9.42779 6.75824 7.27655 8.0844 6.21973 10.1878L8.28689 11.7908C8.77839 10.3163 10.1572 9.22052 11.7807 9.22052Z" fill="white"/>
</g>
<path d="M15.4459 3.66777L15.2934 3.50781L15.141 3.66777L14.5319 4.30692L13.6542 4.20849L13.4348 4.18388L13.4211 4.40399L13.3657 5.28514L12.6302 5.7739L12.4463 5.89626L12.5775 6.07399L13.1012 6.78492L12.8523 7.63188L12.7901 7.8438L13.0048 7.89575L13.8627 8.10356L14.2161 8.91292L14.3043 9.11527L14.5018 9.01683L15.2927 8.62445L16.0836 9.01683L16.2812 9.11527L16.3694 8.91292L16.7228 8.10356L17.5807 7.89575L17.7953 7.8438L17.7331 7.63188L17.4843 6.78492L18.0079 6.07399L18.1392 5.89626L17.9553 5.7739L17.2198 5.28514L17.1644 4.40399L17.1507 4.18388L16.9313 4.20849L16.0536 4.30692L15.4445 3.66777H15.4459Z" fill="white" stroke="#0A7DFA" stroke-width="0.615" stroke-miterlimit="2.462"/>
<path d="M14.2275 6.63603L14.8578 7.26629L16.2803 5.84375" stroke="#0A7DFA" stroke-width="0.617" stroke-miterlimit="2.462"/>
</g>
<defs>
<clipPath id="clip0_3388_62">
<rect width="12.8842" height="16" fill="white" transform="translate(5.55566 3.20312)"/>
</clipPath>
</defs>
</svg>
