<svg width="24" height="24" viewBox="0 0 24 24" fill="none" xmlns="http://www.w3.org/2000/svg">
<rect x="0.5" y="0.5" width="23" height="23" fill="#0A7DFA" stroke="white"/>
<path d="M12.005 5.59766C10.2669 5.59766 10.0488 5.60526 9.36609 5.63632C8.68476 5.66752 8.21969 5.77539 7.81276 5.93366C7.39183 6.09712 7.03476 6.31579 6.67903 6.67166C6.32303 7.02739 6.10436 7.38446 5.94036 7.80526C5.78169 8.21232 5.67369 8.67752 5.64303 9.35859C5.61249 10.0413 5.60449 10.2595 5.60449 11.9977C5.60449 13.7358 5.61223 13.9533 5.64316 14.6359C5.67449 15.3173 5.78236 15.7823 5.94049 16.1893C6.10409 16.6102 6.32276 16.9673 6.67863 17.323C7.03423 17.679 7.39129 17.8982 7.81196 18.0617C8.21916 18.2199 8.68436 18.3278 9.36556 18.359C10.0482 18.3901 10.2662 18.3977 12.0042 18.3977C13.7425 18.3977 13.96 18.3901 14.6426 18.359C15.324 18.3278 15.7896 18.2199 16.1968 18.0617C16.6176 17.8982 16.9741 17.679 17.3297 17.323C17.6857 16.9673 17.9044 16.6102 18.0684 16.1894C18.2257 15.7823 18.3337 15.3171 18.3657 14.6361C18.3964 13.9534 18.4044 13.7358 18.4044 11.9977C18.4044 10.2595 18.3964 10.0414 18.3657 9.35872C18.3337 8.67739 18.2257 8.21232 18.0684 7.80539C17.9044 7.38446 17.6857 7.02739 17.3297 6.67166C16.9737 6.31566 16.6177 6.09699 16.1964 5.93366C15.7884 5.77539 15.323 5.66752 14.6417 5.63632C13.959 5.60526 13.7417 5.59766 12.003 5.59766H12.005ZM11.4309 6.75099C11.6013 6.75072 11.7914 6.75099 12.005 6.75099C13.7138 6.75099 13.9164 6.75712 14.5912 6.78779C15.2152 6.81632 15.5538 6.92059 15.7794 7.00819C16.0781 7.12419 16.291 7.26286 16.5149 7.48686C16.7389 7.71086 16.8776 7.92419 16.9938 8.22286C17.0814 8.44819 17.1858 8.78686 17.2142 9.41086C17.2449 10.0855 17.2516 10.2882 17.2516 11.9962C17.2516 13.7042 17.2449 13.9069 17.2142 14.5815C17.1857 15.2055 17.0814 15.5442 16.9938 15.7695C16.8778 16.0682 16.7389 16.2809 16.5149 16.5047C16.2909 16.7287 16.0782 16.8674 15.7794 16.9834C15.5541 17.0714 15.2152 17.1754 14.5912 17.2039C13.9165 17.2346 13.7138 17.2413 12.005 17.2413C10.2961 17.2413 10.0936 17.2346 9.41889 17.2039C8.79489 17.1751 8.45623 17.0709 8.23049 16.9833C7.93183 16.8673 7.71849 16.7286 7.49449 16.5046C7.27049 16.2806 7.13183 16.0678 7.01556 15.769C6.92796 15.5437 6.82356 15.205 6.79516 14.581C6.76449 13.9063 6.75836 13.7037 6.75836 11.9946C6.75836 10.2855 6.76449 10.0839 6.79516 9.40926C6.82369 8.78526 6.92796 8.44659 7.01556 8.22099C7.13156 7.92232 7.27049 7.70899 7.49449 7.48499C7.71849 7.26099 7.93183 7.12232 8.23049 7.00606C8.45609 6.91806 8.79489 6.81406 9.41889 6.78539C10.0093 6.75872 10.2381 6.75072 11.4309 6.74939V6.75099ZM15.4213 7.81366C14.9973 7.81366 14.6533 8.15726 14.6533 8.58139C14.6533 9.00539 14.9973 9.34939 15.4213 9.34939C15.8453 9.34939 16.1893 9.00539 16.1893 8.58139C16.1893 8.15739 15.8453 7.81339 15.4213 7.81339V7.81366ZM12.005 8.71099C10.19 8.71099 8.71836 10.1826 8.71836 11.9977C8.71836 13.8127 10.19 15.2837 12.005 15.2837C13.8201 15.2837 15.2912 13.8127 15.2912 11.9977C15.2912 10.1826 13.8201 8.71099 12.005 8.71099ZM12.005 9.86432C13.1832 9.86432 14.1384 10.8194 14.1384 11.9977C14.1384 13.1758 13.1832 14.131 12.005 14.131C10.8268 14.131 9.87169 13.1758 9.87169 11.9977C9.87169 10.8194 10.8268 9.86432 12.005 9.86432Z" fill="white"/>
</svg>
