<svg width="28" height="28" viewBox="0 0 28 28" fill="none" xmlns="http://www.w3.org/2000/svg">
<rect x="0.736508" y="0.736142" width="25.7155" height="25.7155" fill="white" stroke="black" stroke-width="1.47303"/>
<g clip-path="url(#clip0_1922_4104)">
<mask id="mask0_1922_4104" style="mask-type:luminance" maskUnits="userSpaceOnUse" x="7" y="8" width="13" height="13">
<path d="M19.4126 8.29297H7.09009V20.8641H19.4126V8.29297Z" fill="white"/>
</mask>
<g mask="url(#mask0_1922_4104)">
<path d="M19.4103 14.7266C19.4103 14.2992 19.3757 13.8697 19.3019 13.4492H13.3733V15.8694H16.7684C16.6276 16.6503 16.1746 17.3408 15.5117 17.7793V19.3495H17.537C18.7267 18.255 19.4103 16.6386 19.4103 14.7266Z" fill="black"/>
<path d="M13.3772 20.8619C15.0723 20.8619 16.5023 20.3054 17.5436 19.3442L15.5184 17.774C14.9549 18.1572 14.2272 18.3747 13.3799 18.3747C11.74 18.3747 10.35 17.2686 9.85082 15.7812H7.76001V17.4005C8.82682 19.523 11.0005 20.8619 13.3772 20.8619Z" fill="black"/>
<path d="M9.84866 15.7834C9.58558 15.0024 9.58558 14.1573 9.84866 13.377V11.7578H7.76061C6.86918 13.5338 6.86918 15.6266 7.76061 17.4026L9.84866 15.7834Z" fill="black"/>
<path d="M13.3772 10.7806C14.2734 10.7667 15.1393 11.1037 15.7884 11.7231L17.5829 9.92848C16.4464 8.86167 14.9384 8.27476 13.3772 8.2934C11.0005 8.2934 8.82751 9.63295 7.76001 11.7576L9.84806 13.3768C10.3445 11.8874 11.7372 10.7806 13.3772 10.7806Z" fill="black"/>
</g>
<path d="M17.0791 5.1772L16.9251 5.01562L16.7711 5.1772L16.1559 5.82281L15.2693 5.72338L15.0476 5.69852L15.0338 5.92086L14.9779 6.8109L14.2349 7.30461L14.0492 7.4282L14.1818 7.60773L14.7107 8.32584L14.4593 9.18136L14.3965 9.39541L14.6133 9.44789L15.4799 9.6578L15.8369 10.4753L15.9259 10.6797L16.1255 10.5803L16.9244 10.184L17.7233 10.5803L17.9229 10.6797L18.0119 10.4753L18.3689 9.6578L19.2355 9.44789L19.4523 9.39541L19.3895 9.18136L19.1381 8.32584L19.667 7.60773L19.7996 7.4282L19.6139 7.30461L18.8709 6.8109L18.815 5.92086L18.8012 5.69852L18.5795 5.72338L17.6929 5.82281L17.0777 5.1772H17.0791Z" fill="black" stroke="white" stroke-width="0.621213" stroke-miterlimit="2.462"/>
<path d="M15.8441 8.17528L16.4808 8.81191L17.9177 7.375" stroke="white" stroke-width="0.623233" stroke-miterlimit="2.462"/>
</g>
<defs>
<clipPath id="clip0_1922_4104">
<rect width="13.0144" height="16.1616" fill="white" transform="translate(7.08435 4.70703)"/>
</clipPath>
</defs>
</svg>
