<svg width="28" height="28" viewBox="0 0 28 28" fill="none" xmlns="http://www.w3.org/2000/svg">
<rect x="0.736508" y="0.736142" width="25.7155" height="25.7155" fill="white" stroke="black" stroke-width="1.47303"/>
<path fill-rule="evenodd" clip-rule="evenodd" d="M20.0642 20.0504H17.4076V15.5257C17.4076 14.2851 16.9363 13.5919 15.9543 13.5919C14.8862 13.5919 14.3281 14.3133 14.3281 15.5257V20.0504H11.7679V11.4309H14.3281V12.5919C14.3281 12.5919 15.0979 11.1675 16.927 11.1675C18.7553 11.1675 20.0642 12.284 20.0642 14.593V20.0504ZM8.71359 10.3022C7.84154 10.3022 7.13489 9.59001 7.13489 8.71165C7.13489 7.83329 7.84154 7.12109 8.71359 7.12109C9.58565 7.12109 10.2919 7.83329 10.2919 8.71165C10.2919 9.59001 9.58565 10.3022 8.71359 10.3022ZM7.39162 20.0504H10.0612V11.4309H7.39162V20.0504Z" fill="black"/>
</svg>
