<svg width="28" height="28" viewBox="0 0 28 28" fill="none" xmlns="http://www.w3.org/2000/svg">
<rect x="0.736508" y="0.736142" width="25.7155" height="25.7155" fill="white" stroke="black" stroke-width="1.47303"/>
<path d="M14.2819 12.1357L17.6149 8.07422H18.525L14.6862 12.752L18.861 19.1221H15.7906L12.9791 14.832L9.45959 19.1221H8.54944L12.5748 14.2158L8.54944 8.07422H11.6198L14.2819 12.1357ZM16.2184 18.4365H17.6158L11.1842 8.79199H9.78674L16.2184 18.4365Z" fill="black"/>
<path d="M14.2819 12.1357L17.6149 8.07422H18.525L14.6862 12.752L18.861 19.1221H15.7906L12.9791 14.832L9.45959 19.1221H8.54944L12.5748 14.2158L8.54944 8.07422H11.6198L14.2819 12.1357ZM16.2184 18.4365H17.6158L11.1842 8.79199H9.78674L16.2184 18.4365Z" stroke="black"/>
</svg>
