<svg width="28" height="28" viewBox="0 0 28 28" fill="none" xmlns="http://www.w3.org/2000/svg">
<rect x="0.736508" y="0.736142" width="25.7155" height="25.7155" fill="white" stroke="black" stroke-width="1.47303"/>
<path d="M13.588 7.12891C11.8323 7.12891 11.612 7.13658 10.9224 7.16796C10.2342 7.19948 9.76442 7.30844 9.35338 7.4683C8.92819 7.63342 8.56752 7.85429 8.20819 8.21376C7.8486 8.57308 7.62772 8.93376 7.46206 9.35881C7.30179 9.76999 7.1927 10.2399 7.16173 10.9278C7.13088 11.6174 7.1228 11.8379 7.1228 13.5936C7.1228 15.3493 7.13061 15.5689 7.16186 16.2585C7.19351 16.9467 7.30247 17.4165 7.4622 17.8275C7.62745 18.2527 7.84833 18.6134 8.20779 18.9727C8.56698 19.3323 8.92765 19.5537 9.35257 19.7188C9.76388 19.8787 10.2338 19.9876 10.9219 20.0192C11.6114 20.0505 11.8316 20.0582 13.5872 20.0582C15.343 20.0582 15.5627 20.0505 16.2522 20.0192C16.9405 19.9876 17.4108 19.8787 17.8221 19.7188C18.2471 19.5537 18.6073 19.3323 18.9665 18.9727C19.3261 18.6134 19.5469 18.2527 19.7126 17.8276C19.8715 17.4165 19.9806 16.9466 20.0129 16.2586C20.0439 15.5691 20.052 15.3493 20.052 13.5936C20.052 11.8379 20.0439 11.6175 20.0129 10.928C19.9806 10.2398 19.8715 9.76999 19.7126 9.35894C19.5469 8.93376 19.3261 8.57308 18.9665 8.21376C18.6069 7.85416 18.2473 7.63328 17.8217 7.4683C17.4096 7.30844 16.9395 7.19948 16.2513 7.16796C15.5617 7.13658 15.3422 7.12891 13.586 7.12891H13.588ZM13.0081 8.29389C13.1802 8.29362 13.3722 8.29389 13.588 8.29389C15.3141 8.29389 15.5186 8.30009 16.2003 8.33106C16.8306 8.35988 17.1727 8.4652 17.4005 8.55369C17.7022 8.67086 17.9173 8.81093 18.1434 9.03719C18.3697 9.26346 18.5098 9.47894 18.6272 9.78063C18.7157 10.0082 18.8211 10.3503 18.8498 10.9806C18.8808 11.6621 18.8875 11.8668 18.8875 13.5921C18.8875 15.3173 18.8808 15.5221 18.8498 16.2035C18.821 16.8338 18.7157 17.1759 18.6272 17.4035C18.51 17.7052 18.3697 17.92 18.1434 18.1462C17.9172 18.3724 17.7023 18.5125 17.4005 18.6297C17.1729 18.7186 16.8306 18.8236 16.2003 18.8524C15.5188 18.8834 15.3141 18.8901 13.588 18.8901C11.8618 18.8901 11.6572 18.8834 10.9757 18.8524C10.3454 18.8233 10.0033 18.718 9.77533 18.6295C9.47365 18.5124 9.25816 18.3723 9.0319 18.146C8.80563 17.9198 8.66557 17.7048 8.54813 17.403C8.45964 17.1754 8.35419 16.8333 8.3255 16.203C8.29452 15.5215 8.28833 15.3168 8.28833 13.5905C8.28833 11.8641 8.29452 11.6605 8.3255 10.979C8.35432 10.3487 8.45964 10.0066 8.54813 9.77874C8.6653 9.47706 8.80563 9.26157 9.0319 9.03531C9.25816 8.80904 9.47365 8.66898 9.77533 8.55154C10.0032 8.46265 10.3454 8.3576 10.9757 8.32864C11.5721 8.3017 11.8032 8.29362 13.0081 8.29228V8.29389ZM17.0388 9.36729C16.6105 9.36729 16.263 9.71437 16.263 10.1428C16.263 10.5711 16.6105 10.9185 17.0388 10.9185C17.4671 10.9185 17.8145 10.5711 17.8145 10.1428C17.8145 9.7145 17.4671 9.36702 17.0388 9.36702V9.36729ZM13.588 10.2737C11.7546 10.2737 10.2681 11.7602 10.2681 13.5936C10.2681 15.427 11.7546 16.9128 13.588 16.9128C15.4214 16.9128 16.9073 15.427 16.9073 13.5936C16.9073 11.7602 15.4214 10.2737 13.588 10.2737ZM13.588 11.4387C14.778 11.4387 15.7429 12.4034 15.7429 13.5936C15.7429 14.7836 14.778 15.7485 13.588 15.7485C12.3978 15.7485 11.4331 14.7836 11.4331 13.5936C11.4331 12.4034 12.3978 11.4387 13.588 11.4387Z" fill="black"/>
</svg>
