<svg width="28" height="28" viewBox="0 0 28 28" fill="none" xmlns="http://www.w3.org/2000/svg">
<rect x="0.736508" y="0.736142" width="25.7155" height="25.7155" fill="white" stroke="black" stroke-width="1.47303"/>
<path d="M13.58 18.3374C13.58 18.3374 17.8835 18.3374 18.9509 18.0531C19.5519 17.8921 20.0039 17.4278 20.1626 16.8547C20.4559 15.803 20.4559 13.5908 20.4559 13.5908C20.4559 13.5908 20.4559 11.3929 20.1626 10.3507C20.0039 9.76332 19.5519 9.30856 18.9509 9.15224C17.8835 8.86328 13.58 8.86328 13.58 8.86328C13.58 8.86328 9.28615 8.86328 8.22351 9.15224C7.63209 9.30856 7.17049 9.76332 7.0022 10.3507C6.71851 11.3929 6.71851 13.5908 6.71851 13.5908C6.71851 13.5908 6.71851 15.803 7.0022 16.8547C7.17049 17.4278 7.63209 17.8921 8.22351 18.0531C9.28615 18.3374 13.58 18.3374 13.58 18.3374Z" fill="black"/>
<path d="M15.7245 13.5992L12.1718 11.5859V15.6124L15.7245 13.5992Z" fill="white"/>
</svg>
