<svg width="28" height="28" viewBox="0 0 28 28" fill="none" xmlns="http://www.w3.org/2000/svg">
<rect x="0.736508" y="0.736142" width="25.7155" height="25.7155" fill="white" stroke="black" stroke-width="1.47303"/>
<path d="M16.9788 11.1686H14.4659V10.3381C14.4659 9.09546 14.9519 8.61876 16.213 8.61876C16.6036 8.61876 16.9204 8.62795 17.1019 8.64642V6.51492C16.7573 6.41952 15.9177 6.32422 15.4317 6.32422C12.8634 6.32422 11.6792 7.53605 11.6792 10.1535V11.1655H10.0922V13.5154H11.6792V20.8697H14.4689V13.5185H16.5483L16.9788 11.1686Z" fill="black"/>
<path d="M14.4659 11.1686H16.9788L16.5483 13.5185H14.4689V20.8697H11.6792V13.5154H10.0922V11.1655H11.6792V10.1535C11.6792 7.53605 12.8634 6.32422 15.4317 6.32422C15.9177 6.32422 16.7573 6.41952 17.1019 6.51492V8.64642C16.9204 8.62795 16.6036 8.61876 16.213 8.61876C14.9519 8.61876 14.4659 9.09546 14.4659 10.3381V11.1686Z" fill="black"/>
</svg>
