<svg width="123" height="105" viewBox="0 0 123 105" fill="none" xmlns="http://www.w3.org/2000/svg">
<path d="M122.332 0H0V104.066H122.332V0Z" fill="#0A7DFA"/>
<path d="M54.1567 57.7938H31.2568V75.8168H57.1807L55.1537 89.8498H14.2188V14.2178H55.1977V28.4348H31.2568V43.6498H54.1567V57.7938Z" fill="white"/>
<path d="M78.0299 67.9531C78.4659 74.1651 80.2329 78.4391 85.4259 78.4391C90.4709 78.4391 92.0879 75.0431 92.0879 70.7441C92.0879 65.5101 89.4569 62.4321 80.5609 57.8731C67.4239 51.0901 62.4629 45.3651 62.4629 34.2501C62.4629 21.3121 70.3689 12.8281 85.3519 12.8281C102.977 12.8281 108.02 23.8411 108.164 35.4551H91.4339C91.1449 30.1881 90.1819 25.6621 85.2459 25.6621C81.3809 25.6621 79.6519 28.1691 79.6519 32.3891C79.6519 36.7211 81.3409 38.9551 89.5659 43.0661C103.584 50.1251 109.535 56.0941 109.535 68.8101C109.535 81.3121 102.228 91.2741 85.2519 91.2741C66.8589 91.2741 61.2479 80.7941 60.8789 67.9541H78.0289L78.0299 67.9531Z" fill="white"/>
<path d="M78.0299 67.9531C78.4679 74.1651 80.2349 78.4391 85.4259 78.4391C90.4729 78.4391 92.0899 75.0431 92.0899 70.7441C92.0899 65.5101 89.4589 62.4321 80.5629 57.8731C67.4239 51.0901 62.4629 45.3651 62.4629 34.2501C62.4629 21.3121 70.3689 12.8281 85.3539 12.8281C102.977 12.8281 108.019 23.8411 108.164 35.4551H91.4359C91.1449 30.1881 90.1819 25.6621 85.2479 25.6621C81.3809 25.6621 79.6519 28.1691 79.6519 32.3891C79.6519 36.7211 81.3409 38.9551 89.5659 43.0661C103.586 50.1251 109.537 56.0941 109.537 68.8101C109.537 81.3121 102.228 91.2741 85.2539 91.2741C66.8609 91.2741 61.2479 80.7941 60.8789 67.9541H78.0289L78.0299 67.9531Z" fill="white"/>
</svg>
