<svg width="171" height="171" viewBox="0 0 171 171" fill="none" xmlns="http://www.w3.org/2000/svg">
<path d="M120.058 0H50.9418C22.8524 0 0 22.8524 0 50.9418V120.058C0 148.148 22.8524 171 50.9418 171H120.058C148.148 171 171 148.148 171 120.058V50.9418C171 22.8524 148.147 0 120.058 0ZM153.797 120.058C153.797 138.692 138.692 153.797 120.058 153.797H50.9418C32.3083 153.797 17.2026 138.692 17.2026 120.058V50.9418C17.2026 32.308 32.3083 17.2026 50.9418 17.2026H120.058C138.692 17.2026 153.797 32.308 153.797 50.9418V120.058Z" fill="#878787"/>
<path d="M85.5 41.2733C61.1134 41.2733 41.2733 61.1134 41.2733 85.4997C41.2733 109.886 61.1134 129.726 85.5 129.726C109.887 129.726 129.727 109.886 129.727 85.4997C129.727 61.1131 109.887 41.2733 85.5 41.2733ZM85.5 112.524C70.5749 112.524 58.4759 100.425 58.4759 85.5C58.4759 70.5749 70.5752 58.4759 85.5 58.4759C100.425 58.4759 112.524 70.5749 112.524 85.5C112.524 100.425 100.425 112.524 85.5 112.524Z" fill="#878787"/>
<path d="M129.812 52.203C135.665 52.203 140.41 47.4583 140.41 41.6054C140.41 35.7525 135.665 31.0077 129.812 31.0077C123.959 31.0077 119.215 35.7525 119.215 41.6054C119.215 47.4583 123.959 52.203 129.812 52.203Z" fill="#878787"/>
</svg>
