<svg width="150" height="171" viewBox="0 0 150 171" fill="none" xmlns="http://www.w3.org/2000/svg">
<path d="M76.3237 171H76.2746C50.7654 170.827 31.155 162.416 17.9788 145.992C6.2495 131.378 0.203029 111.044 0 85.5618V85.4382C0.203363 59.9499 6.2495 39.6216 17.9788 25.0084C31.1487 8.5844 50.7654 0.172336 76.2683 0H76.3668C95.9217 0.129252 112.281 5.16039 124.996 14.9398C136.947 24.134 145.358 37.2386 150 53.8964L135.469 57.9486C127.607 29.738 107.707 15.3155 76.3177 15.0877C55.5927 15.2354 39.9227 21.7507 29.7328 34.4492C20.1891 46.3407 15.2573 63.5158 15.0786 85.494C15.2633 107.479 20.1951 124.654 29.7328 136.539C39.923 149.237 55.5927 155.752 76.3177 155.9C94.9981 155.765 107.362 151.411 117.645 141.336C129.38 129.838 129.165 115.737 125.409 107.159C123.198 102.102 119.183 97.8905 113.771 94.7003C112.411 104.32 109.35 112.128 104.622 118.009C98.3167 125.861 89.377 130.153 78.0598 130.763C69.4952 131.224 61.2448 129.199 54.8413 125.054C47.2678 120.152 42.8349 112.651 42.3607 103.932C41.8989 95.4521 45.2609 87.6555 51.8243 81.9775C58.0985 76.5522 66.9216 73.3687 77.3455 72.7835C85.0296 72.3524 92.2148 72.6914 98.8586 73.7995C97.9781 68.5095 96.1929 64.316 93.5328 61.2861C89.8752 57.117 84.2168 54.9865 76.7237 54.9371H76.5144C70.499 54.9371 62.3284 56.5873 57.1194 64.3344L44.602 55.9163C51.5718 45.5521 62.895 39.8497 76.5084 39.8497H76.8162C99.5792 39.9913 113.131 53.9148 114.48 78.2332C115.255 78.5601 116.013 78.8981 116.764 79.2495C127.385 84.2439 135.149 91.8063 139.225 101.117C144.902 114.098 145.425 135.252 128.192 152.125C115.028 165.02 99.0433 170.84 76.3668 170.994H76.3177L76.3237 171ZM83.4661 87.6983C81.742 87.6983 79.9933 87.7474 78.2074 87.8523C65.1237 88.5914 56.9715 94.5834 57.4333 103.118C57.9198 112.06 67.7834 116.217 77.2594 115.706C85.984 115.237 97.3383 111.844 99.2403 89.2683C94.425 88.2403 89.1306 87.6983 83.4658 87.6983H83.4661Z" fill="#878787"/>
</svg>
