<svg width="222" height="171" viewBox="0 0 222 171" fill="none" xmlns="http://www.w3.org/2000/svg">
<path d="M91.9358 47.1827C87.3385 44.4367 81.4463 47.7559 81.4463 53.1369V117.856C81.4463 123.265 87.3478 126.538 91.9358 123.82L146.224 91.5062C150.738 88.8157 150.729 82.2883 146.233 79.5886L91.9358 47.1827ZM95.3213 105.661V65.3503L129.13 85.5335L95.3213 105.661Z" fill="#878787"/>
<path d="M184.112 4.79154C141.072 -1.59718 80.9468 -1.59718 37.888 4.79154C20.6645 7.34333 7.09475 20.8604 4.13475 38.4086C-1.37825 70.9809 -1.37825 100.021 4.13475 132.584C7.09475 150.142 20.6645 163.65 37.888 166.202C59.459 169.401 85.285 171 111.102 171C136.872 171 162.634 169.41 184.121 166.211C201.326 163.659 214.887 150.151 217.865 132.594C223.378 100.021 223.378 70.9717 217.865 38.3994C214.905 20.8604 201.335 7.34333 184.112 4.79154ZM204.184 130.282C202.214 141.895 193.334 150.826 182.077 152.49C140.286 158.694 81.8255 158.694 39.923 152.481C28.6565 150.808 19.7672 141.886 17.8062 130.273C12.4967 98.8934 12.4967 72.1089 17.8062 40.7108C19.7765 29.0983 28.6565 20.1855 39.9323 18.5028C60.8558 15.4055 85.9325 13.8522 110.991 13.8522C136.068 13.8522 161.144 15.4055 182.068 18.5028C193.334 20.1763 202.223 29.0983 204.184 40.7108C209.494 72.1089 209.494 98.8934 204.184 130.282Z" fill="#878787"/>
</svg>
