<svg width="258" height="31" viewBox="0 0 258 31" fill="none" xmlns="http://www.w3.org/2000/svg">
<path d="M258 0H0V30.6864H258V0Z" fill="#0A7DFA"/>
<path d="M15.7625 16.9716H9.00991V22.2688H16.6542L16.0565 26.3933H3.98584V4.16406H16.0695V8.34263H9.00991V12.8145H15.7625V16.9716Z" fill="white"/>
<path d="M22.7979 19.9598C22.9265 21.7856 23.4475 23.0418 24.9788 23.0418C26.4665 23.0418 26.9433 22.0436 26.9433 20.7801C26.9433 19.2418 26.1675 18.3371 23.5443 16.9971C19.6705 15.0035 18.2076 13.3209 18.2076 10.054C18.2076 6.25137 20.5389 3.75781 24.957 3.75781C30.1542 3.75781 31.6412 6.99468 31.6837 10.4082H26.7504C26.6652 8.86015 26.3812 7.5299 24.9257 7.5299C23.7861 7.5299 23.2762 8.26674 23.2762 9.50705C23.2762 10.7803 23.7743 11.4369 26.1996 12.6452C30.3332 14.7199 32.0879 16.4743 32.0879 20.2117C32.0879 23.8862 29.9333 26.8141 24.9275 26.8141C19.5039 26.8141 17.8493 23.7339 17.7405 19.9601H22.7976L22.7979 19.9598Z" fill="white"/>
<path d="M38.5253 19.9598C38.6539 21.7856 39.1749 23.0418 40.7062 23.0418C42.1938 23.0418 42.6706 22.0436 42.6706 20.7801C42.6706 19.2418 41.8948 18.3371 39.2716 16.9971C35.3978 15.0035 33.935 13.3209 33.935 10.054C33.935 6.25137 36.2663 3.75781 40.6844 3.75781C45.8815 3.75781 47.3686 6.99468 47.411 10.4082H42.4778C42.3926 8.86015 42.1086 7.5299 40.6531 7.5299C39.5134 7.5299 39.0036 8.26674 39.0036 9.50705C39.0036 10.7803 39.5016 11.4369 41.927 12.6452C46.0605 14.7199 47.8153 16.4743 47.8153 20.2117C47.8153 23.8862 45.6607 26.8141 40.6549 26.8141C35.2312 26.8141 33.5767 23.7339 33.4679 19.9601H38.525L38.5253 19.9598Z" fill="white"/>
<path d="M61.6666 16.9716H54.914V22.2688H62.5583L61.9606 26.3933H49.8896V4.16406H61.9735V8.34263H54.914V12.8145H61.6666V16.9716Z" fill="white"/>
<path d="M64.4897 26.3933V4.16406H70.097C73.4875 14.6412 74.2748 17.16 74.5039 18.1752H74.595C74.3739 15.378 74.3043 11.7147 74.3043 8.24564V4.16406H78.8294V26.3936H73.3047C69.7824 14.8393 69.1207 12.5994 68.87 11.6386H68.7674C68.9438 14.3132 69.0369 18.4309 69.0369 22.0672V26.3936H64.49L64.4897 26.3933Z" fill="white"/>
<path d="M84.8904 8.34263H80.4927V4.16406H94.3789V8.34263H90.0041V26.3936H84.8904V8.34263Z" fill="white"/>
<path d="M101.146 4.16406V26.3936H96.0216V4.16406H101.146Z" fill="white"/>
<path d="M108.565 21.6355L107.806 26.3936H102.68L107.08 4.16406H114.282L118.738 26.3936H113.416L112.634 21.6355H108.565ZM111.955 17.3396C111.449 14.0963 110.96 10.4782 110.678 8.43462H110.51C110.292 10.5664 109.747 14.0945 109.219 17.3396H111.955Z" fill="white"/>
<path d="M120.36 4.16406H125.485V22.2444H132.561L132.084 26.3936H120.36V4.16406Z" fill="white"/>
<path d="M134.134 4.16406H139.259V22.2444H146.335L145.858 26.3936H134.134V4.16406Z" fill="white"/>
<path d="M149.185 26.3936V19.178C149.185 18.8568 149.153 18.5206 149.008 18.1552L143.777 4.16406H149.432C150.355 7.5182 151.382 11.3802 151.927 14.1116C152.544 11.5948 153.652 7.43444 154.477 4.16406H159.775L154.466 18.2093C154.388 18.4547 154.322 18.7063 154.322 19.0916V26.3936H149.185Z" fill="white"/>
<path d="M165.334 19.9598C165.463 21.7856 165.984 23.0418 167.515 23.0418C169.003 23.0418 169.48 22.0436 169.48 20.7801C169.48 19.2418 168.704 18.3371 166.081 16.9971C162.207 15.0035 160.744 13.3209 160.744 10.054C160.744 6.25137 163.075 3.75781 167.494 3.75781C172.69 3.75781 174.177 6.99468 174.22 10.4082H169.287C169.201 8.86015 168.917 7.5299 167.462 7.5299C166.322 7.5299 165.812 8.26674 165.812 9.50705C165.812 10.7803 166.31 11.4369 168.736 12.6452C172.87 14.7199 174.625 16.4743 174.625 20.2117C174.625 23.8862 172.469 26.8141 167.464 26.8141C162.041 26.8141 160.385 23.7339 160.277 19.9601H165.334L165.334 19.9598Z" fill="white"/>
<path d="M176.705 4.16406H184.023C187.894 4.16406 190.676 6.30023 190.676 10.9026C190.676 15.5467 188.181 17.7158 183.795 17.7158H181.795V26.3936H176.705V4.16406H176.705ZM181.795 13.8079H183.126C184.892 13.8079 185.563 12.9494 185.563 10.8597C185.563 8.79114 184.673 8.00022 183.232 8.00022H181.795V13.8082L181.795 13.8079Z" fill="white"/>
<path d="M207.325 15.1396C207.325 23.2863 205.095 26.8141 199.552 26.8141C194.384 26.8141 192.09 23.2269 192.09 15.0276C192.09 7.15104 194.64 3.75781 199.761 3.75781C205.019 3.75781 207.325 7.40557 207.325 15.1396ZM197.442 15.0294C197.442 20.5168 197.939 22.7999 199.697 22.7999C201.553 22.7999 201.974 20.6758 201.974 15.0294C201.974 9.75277 201.532 7.79354 199.697 7.79354C197.93 7.79354 197.442 9.84799 197.442 15.0294Z" fill="white"/>
<path d="M214.756 17.2973V26.3933H209.699V4.16406H217.23C221.533 4.16406 223.725 6.29376 223.725 10.3195C223.725 13.3971 222.207 14.8372 220.863 15.3677C222.608 16.1446 223.431 17.5733 223.431 20.7708V21.544C223.431 24.0156 223.529 25.4166 223.671 26.3936H218.699C218.438 25.5351 218.349 23.5574 218.349 21.3839V20.6185C218.349 17.9898 217.818 17.2973 215.859 17.2973H214.756ZM214.768 13.4726H215.955C217.871 13.4726 218.61 12.7819 218.61 10.6096C218.61 8.77791 217.962 7.977 216.28 7.977H214.768V13.4726Z" fill="white"/>
<path d="M229.381 8.34263H224.983V4.16406H238.869V8.34263H234.494V26.3936H229.381V8.34263Z" fill="white"/>
<path d="M244.729 19.9598C244.858 21.7856 245.379 23.0418 246.91 23.0418C248.398 23.0418 248.875 22.0436 248.875 20.7801C248.875 19.2418 248.099 18.3371 245.476 16.9971C241.602 15.0035 240.139 13.3209 240.139 10.054C240.139 6.25137 242.47 3.75781 246.889 3.75781C252.085 3.75781 253.572 6.99468 253.615 10.4082H248.682C248.596 8.86015 248.312 7.5299 246.858 7.5299C245.717 7.5299 245.207 8.26674 245.207 9.50705C245.207 10.7803 245.705 11.4369 248.131 12.6452C252.265 14.7199 254.02 16.4743 254.02 20.2117C254.02 23.8862 251.865 26.8141 246.859 26.8141C241.436 26.8141 239.781 23.7339 239.672 19.9601H244.729L244.729 19.9598Z" fill="white"/>
</svg>
